<svg width="119" height="119" viewBox="0 0 119 119" fill="none" xmlns="http://www.w3.org/2000/svg">
<path d="M76.5417 59.8889C76.5417 69.3928 68.8373 77.0972 59.3333 77.0972C49.8294 77.0972 42.125 69.3928 42.125 59.8889C42.125 50.385 49.8294 42.6805 59.3333 42.6805C68.8373 42.6805 76.5417 50.385 76.5417 59.8889Z" stroke="#163300" stroke-width="8.5"/>
<path d="M102.554 45.8863C106.518 52.7194 108.5 56.1355 108.5 59.8889C108.5 63.6423 106.518 67.0584 102.554 73.8915L93.0957 90.1942C89.1471 96.9999 87.1731 100.403 83.9261 102.271C80.6796 104.139 76.7394 104.139 68.8585 104.139H49.8084C41.9275 104.139 37.9872 104.139 34.7406 102.271C31.494 100.403 29.5197 96.9999 25.5712 90.1942L16.1131 73.8915C12.1489 67.0584 10.1667 63.6423 10.1667 59.8889C10.1667 56.1355 12.1489 52.7194 16.1131 45.8862L25.5712 29.5836C29.5197 22.7777 31.494 19.3748 34.7406 17.5068C37.9872 15.6389 41.9275 15.6389 49.8084 15.6389H68.8585C76.7394 15.6389 80.6796 15.6389 83.9261 17.5068C87.1731 19.3748 89.1471 22.7777 93.0957 29.5836L102.554 45.8863Z" stroke="#163300" stroke-width="8.5"/>
</svg>
