<svg width="22" height="29" viewBox="0 0 22 29" fill="none" xmlns="http://www.w3.org/2000/svg">
<path d="M11 22C8.82441 22 6.69767 21.3549 4.88873 20.1462C3.07979 18.9375 1.66989 17.2195 0.83733 15.2095C0.00476617 13.1995 -0.213071 10.9878 0.211367 8.85401C0.635804 6.72022 1.68345 4.76021 3.22183 3.22183C4.76021 1.68345 6.72022 0.635804 8.85401 0.211367C10.9878 -0.213071 13.1995 0.00476617 15.2095 0.83733C17.2195 1.66989 18.9375 3.07979 20.1462 4.88873C21.3549 6.69767 22 8.82441 22 11C22 13.9174 20.8411 16.7153 18.7782 18.7782C16.7153 20.8411 13.9174 22 11 22ZM11 2.00001C9.21997 2.00001 7.47991 2.52785 5.99987 3.51678C4.51983 4.50571 3.36628 5.91132 2.68509 7.55585C2.0039 9.20039 1.82567 11.01 2.17294 12.7558C2.5202 14.5016 3.37737 16.1053 4.63604 17.364C5.89472 18.6226 7.49836 19.4798 9.24419 19.8271C10.99 20.1743 12.7996 19.9961 14.4442 19.3149C16.0887 18.6337 17.4943 17.4802 18.4832 16.0001C19.4722 14.5201 20 12.78 20 11C20 8.61306 19.0518 6.32387 17.364 4.63604C15.6761 2.94822 13.387 2.00001 11 2.00001Z" fill="#304046"/>
<path d="M21 28C20.9203 28.0096 20.8397 28.0096 20.76 28L11 25.54L1.24 28C1.09241 28.0375 0.938212 28.0407 0.789171 28.0095C0.640131 27.9783 0.500183 27.9135 0.38 27.82C0.256732 27.7227 0.158097 27.5978 0.0920791 27.4554C0.0260616 27.3129 -0.00548286 27.1569 -5.06057e-07 27V11C-5.06057e-07 10.7348 0.105357 10.4804 0.292893 10.2929C0.480429 10.1054 0.734783 10 1 10C1.26522 10 1.51957 10.1054 1.70711 10.2929C1.89464 10.4804 2 10.7348 2 11V25.72L10 23.72V21C10 20.7348 10.1054 20.4804 10.2929 20.2929C10.4804 20.1054 10.7348 20 11 20C11.2652 20 11.5196 20.1054 11.7071 20.2929C11.8946 20.4804 12 20.7348 12 21V23.74L20 25.74V11C20 10.7348 20.1054 10.4804 20.2929 10.2929C20.4804 10.1054 20.7348 10 21 10C21.2652 10 21.5196 10.1054 21.7071 10.2929C21.8946 10.4804 22 10.7348 22 11V27C22 27.2652 21.8946 27.5196 21.7071 27.7071C21.5196 27.8946 21.2652 28 21 28Z" fill="#304046"/>
<path d="M14.72 17.33C14.5597 17.3341 14.4011 17.2961 14.26 17.22L11 15.53L7.78 17.22C7.61486 17.3057 7.42911 17.3435 7.24362 17.3294C7.05813 17.3153 6.88026 17.2497 6.73 17.14C6.57485 17.0289 6.45475 16.8757 6.38387 16.6985C6.31299 16.5213 6.2943 16.3275 6.33 16.14L7 12.58L4.37 10C4.24146 9.87173 4.15027 9.71088 4.10623 9.5347C4.06218 9.35853 4.06694 9.17368 4.12 9.00001C4.1772 8.82364 4.2823 8.66665 4.42358 8.54657C4.56485 8.42649 4.73672 8.34805 4.92 8.32001L8.53 7.80001L10.14 4.53001C10.2229 4.3636 10.3506 4.22361 10.5087 4.12576C10.6668 4.02791 10.8491 3.97607 11.035 3.97607C11.2209 3.97607 11.4032 4.02791 11.5613 4.12576C11.7194 4.22361 11.8471 4.3636 11.93 4.53001L13.54 7.80001L17.14 8.32001C17.334 8.33729 17.5187 8.41085 17.6715 8.53165C17.8243 8.65245 17.9384 8.81523 18 9.00001C18.0531 9.17368 18.0578 9.35853 18.0138 9.5347C17.9697 9.71088 17.8785 9.87173 17.75 10L15.14 12.54L15.76 16.13C15.7834 16.2741 15.7749 16.4215 15.7352 16.562C15.6955 16.7024 15.6256 16.8325 15.5303 16.943C15.435 17.0536 15.3167 17.1419 15.1836 17.2019C15.0505 17.2618 14.9059 17.2919 14.76 17.29L14.72 17.33ZM11 13.4C11.1633 13.3977 11.3247 13.4355 11.47 13.51L13.36 14.51L13 12.4C12.9721 12.2393 12.9839 12.0741 13.0344 11.919C13.085 11.7638 13.1727 11.6234 13.29 11.51L14.85 10L12.73 9.69001C12.5698 9.66594 12.4178 9.60331 12.2872 9.50751C12.1565 9.4117 12.0511 9.28558 11.98 9.14001L11 7.24001L10.06 9.16001C9.98796 9.30685 9.881 9.43377 9.7485 9.52966C9.616 9.62555 9.462 9.68747 9.3 9.71001L7.22 10L8.75 11.49C8.86728 11.6034 8.95502 11.7438 9.00556 11.899C9.05611 12.0541 9.06794 12.2193 9.04 12.38L8.67 14.49L10.57 13.49C10.704 13.4257 10.8515 13.3948 11 13.4Z" fill="#304046"/>
</svg>
