<svg width="38" height="38" viewBox="0 0 38 38" fill="none" xmlns="http://www.w3.org/2000/svg">
<path d="M33.6358 17.9922L32.303 17.9922L32.303 5.9969C32.303 5.64342 32.1626 5.30441 31.9127 5.05446C31.6627 4.80451 31.3237 4.66409 30.9702 4.66409L24.3061 4.66409C24.3061 3.60364 23.8849 2.58662 23.135 1.83676C22.3852 1.08691 21.3682 0.665649 20.3077 0.665649L17.6421 0.665649C16.5816 0.665649 15.5646 1.08691 14.8148 1.83676C14.0649 2.58662 13.6436 3.60364 13.6436 4.66409L6.97958 4.66409C6.6261 4.66409 6.28709 4.80451 6.03714 5.05446C5.78719 5.30441 5.64677 5.64342 5.64677 5.9969L5.64677 17.9922L4.31396 17.9922C3.25351 17.9922 2.23649 18.4135 1.48664 19.1633C0.736784 19.9132 0.315521 20.9302 0.315521 21.9907L0.315521 28.6547C0.315521 29.7152 0.736784 30.7322 1.48664 31.482C2.23649 32.2319 3.25351 32.6532 4.31396 32.6532L5.64677 32.6532C5.64677 34.0671 6.20846 35.4231 7.20826 36.4229C8.20806 37.4227 9.56409 37.9844 10.978 37.9844L26.9718 37.9844C28.3857 37.9844 29.7417 37.4227 30.7415 36.4229C31.7413 35.4231 32.303 34.0671 32.303 32.6532L33.6358 32.6532C34.6963 32.6532 35.7133 32.2319 36.4632 31.482C37.213 30.7322 37.6343 29.7152 37.6343 28.6547L37.6343 21.9906C37.6343 20.9302 37.213 19.9132 36.4632 19.1633C35.7133 18.4135 34.6963 17.9922 33.6358 17.9922ZM33.6358 20.6578C33.9893 20.6578 34.3283 20.7983 34.5783 21.0482C34.8282 21.2982 34.9686 21.6372 34.9686 21.9906L34.9686 23.3235L32.303 23.3235L32.303 20.6578L33.6358 20.6578ZM17.6421 3.33127L20.3077 3.33127C20.6612 3.33127 21.0002 3.4717 21.2502 3.72165C21.5001 3.9716 21.6405 4.3106 21.6405 4.66409L16.3093 4.66409C16.3093 4.3106 16.4497 3.9716 16.6996 3.72165C16.9496 3.4717 17.2886 3.33127 17.6421 3.33127ZM29.6374 7.32971L29.6374 13.4473L26.8118 16.2729C26.6873 16.3964 26.5396 16.4941 26.3772 16.5605C26.2148 16.6268 26.0409 16.6604 25.8655 16.6594L12.0843 16.6594C11.9088 16.6604 11.735 16.6268 11.5726 16.5605C11.4102 16.4941 11.2625 16.3964 11.138 16.2729L8.3124 13.4473L8.3124 7.32971L29.6374 7.32971ZM4.31396 20.6578L5.64677 20.6578L5.64677 23.3235L2.98115 23.3235L2.98115 21.9907C2.98115 21.6372 3.12157 21.2982 3.37152 21.0482C3.62147 20.7983 3.96048 20.6578 4.31396 20.6578ZM4.31396 29.9875C3.96048 29.9875 3.62147 29.8471 3.37152 29.5972C3.12157 29.3472 2.98115 29.0082 2.98115 28.6547L2.98115 25.9891L5.64677 25.9891L5.64677 29.9875L4.31396 29.9875ZM29.6374 32.6532C29.6374 33.3601 29.3566 34.0381 28.8567 34.538C28.3568 35.0379 27.6787 35.3188 26.9718 35.3188L10.978 35.3188C10.2711 35.3188 9.59304 35.0379 9.09314 34.538C8.59324 34.0381 8.3124 33.3601 8.3124 32.6532L8.3124 17.2059L9.25869 18.1521C10.0078 18.9022 11.0242 19.3241 12.0843 19.325L25.8655 19.325C26.9256 19.3241 27.942 18.9022 28.6911 18.1521L29.6374 17.2059L29.6374 32.6532ZM33.6358 29.9875L32.303 29.9875L32.303 25.9891L34.9686 25.9891L34.9686 28.6547C34.9686 29.0082 34.8282 29.3472 34.5783 29.5972C34.3283 29.8471 33.9893 29.9875 33.6358 29.9875Z" fill="#304046"/>
<path d="M24.3062 21.9907L13.6437 21.9907C12.9367 21.9907 12.2587 22.2715 11.7588 22.7714C11.2589 23.2713 10.978 23.9493 10.978 24.6563L10.978 28.1083C10.981 28.8141 11.2638 29.4899 11.7644 29.9875L13.6437 31.8668C14.1413 32.3674 14.8171 32.6502 15.5229 32.6532L22.4269 32.6532C23.1327 32.6502 23.8085 32.3674 24.3062 31.8668L26.1854 29.9875C26.686 29.4899 26.9688 28.8141 26.9718 28.1083L26.9718 24.6563C26.9718 23.9493 26.6909 23.2713 26.191 22.7714C25.6911 22.2715 25.0131 21.9907 24.3062 21.9907ZM24.3062 28.1083L22.4269 29.9875L15.5229 29.9875L13.6437 28.1083L13.6437 24.6563L24.3062 24.6563L24.3062 28.1083Z" fill="#304046"/>
</svg>
